# xmcd
#
# Track frame offsets:
# 150
# 14262
# 28358
# 43016
# 50131
# 64993
# 80061
# 96525
# 110719
# 120078
# 135684
# 149797
# 165225
# 175655
# 195427
# 198377
# 205620
# 214350
# 232207
# 242198
# 258751
# 273554
#
# Disc length: 3846 seconds
#
#
# Revision: 0
# Processed by: cddbd v1.5.2PL0 Copyright (c) Steve Scherf et al.
# Submitted via: FreeRIP 2.951 
#
DISCID=530f0416
DTITLE=Blacksmith (T Kweli Jean Grae SAS) - The Movement MixTape
DYEAR=0006
DGENRE=Hip-Hop
TTITLE0=Intro The Movement
TTITLE1=This Is It(T Kweli)
TTITLE2=On Site(SAS)
TTITLE3=Roll Call(J Grae Macguyver)
TTITLE4=Heat Freestyle(Phil Da Agony T Kweli)
TTITLE5=hater Anthem(J Grae)
TTITLE6=Hush(J Grae T Kweli)
TTITLE7=Money Dont Make You Rich(Hi Tek SAS)
TTITLE8=I Cant Believe(SAS)
TTITLE9=Hell Raza(T Kweli MFDOOM)
TTITLE10=New York Shit( Tkweli J Grae)
TTITLE11=Funny Money(Madlib)
TTITLE12=Making Money(SAS)
TTITLE13=Where It All Started(Hi tek and Crew)
TTITLE14=Step Back(Sonia Sanchez)
TTITLE15=I Feel You(T Kweli)
TTITLE16=the Jam(J Grae)
TTITLE17=High Enough(T Kweli Fonzworth Bentley)
TTITLE18=Pardon Me(J Grae 9th)
TTITLE19=Can We Go Back(Hi Tek TKweli)
TTITLE20=Young Man(J Legend TKweli KWest)
TTITLE21=Sacred Artist(TKweli Planet Asia)
EXTD=
EXTT0=
EXTT1=
EXTT2=
EXTT3=
EXTT4=
EXTT5=
EXTT6=
EXTT7=
EXTT8=
EXTT9=
EXTT10=
EXTT11=
EXTT12=
EXTT13=
EXTT14=
EXTT15=
EXTT16=
EXTT17=
EXTT18=
EXTT19=
EXTT20=
EXTT21=
PLAYORDER=
